<svg width="528" height="528" viewBox="0 0 528 528" fill="none" xmlns="http://www.w3.org/2000/svg">
<g id="loaddddddd">
<path id="light" opacity="0.25" fill-rule="evenodd" clip-rule="evenodd" d="M162.942 20.0356C194.081 7.12289 228.219 0 264 0C299.781 0 333.919 7.12289 365.058 20.0356C369.139 21.728 371.076 26.4086 369.383 30.4898C367.691 34.5711 363.011 36.5077 358.929 34.8152C329.699 22.694 297.641 16 264 16C230.359 16 198.301 22.694 169.071 34.8152C164.989 36.5077 160.309 34.5711 158.617 30.4899C156.924 26.4086 158.861 21.728 162.942 20.0356ZM497.51 158.617C501.591 156.924 506.272 158.861 507.964 162.942C520.877 194.081 528 228.219 528 264C528 299.781 520.877 333.919 507.964 365.058C506.272 369.139 501.591 371.076 497.51 369.383C493.429 367.691 491.492 363.011 493.185 358.929C505.306 329.699 512 297.641 512 264C512 230.359 505.306 198.301 493.185 169.071C491.492 164.989 493.429 160.309 497.51 158.617ZM30.4898 158.617C34.5711 160.309 36.5077 164.989 34.8152 169.071C22.694 198.301 16 230.359 16 264C16 297.641 22.694 329.699 34.8152 358.929C36.5077 363.011 34.5711 367.691 30.4899 369.384C26.4086 371.076 21.728 369.139 20.0356 365.058C7.12289 333.919 0 299.781 0 264C0 228.219 7.12289 194.081 20.0356 162.942C21.728 158.861 26.4086 156.924 30.4898 158.617ZM158.617 497.51C160.309 493.429 164.989 491.492 169.071 493.185C198.301 505.306 230.359 512 264 512C297.641 512 329.699 505.306 358.929 493.185C363.011 491.492 367.691 493.429 369.384 497.51C371.076 501.591 369.139 506.272 365.058 507.964C333.919 520.877 299.781 528 264 528C228.219 528 194.081 520.877 162.942 507.964C158.861 506.272 156.924 501.591 158.617 497.51Z" fill="white"/>
<path id="lil_light" opacity="0.5" fill-rule="evenodd" clip-rule="evenodd" d="M182.081 66.2416C207.325 55.7736 234.998 50 264 50C293.002 50 320.675 55.7736 345.919 66.2416C350 67.934 351.937 72.6146 350.244 76.6958C348.552 80.7771 343.871 82.7137 339.79 81.0212C316.455 71.3447 290.862 66 264 66C237.138 66 211.545 71.3447 188.21 81.0212C184.129 82.7136 179.448 80.7771 177.756 76.6958C176.063 72.6145 178 67.934 182.081 66.2416ZM76.6958 177.756C80.7771 179.448 82.7137 184.129 81.0212 188.21C71.3447 211.545 66 237.138 66 264C66 290.862 71.3447 316.455 81.0212 339.79C82.7136 343.871 80.7771 348.552 76.6958 350.244C72.6145 351.937 67.934 350 66.2416 345.919C55.7736 320.675 50 293.002 50 264C50 234.998 55.7736 207.325 66.2416 182.081C67.934 178 72.6146 176.063 76.6958 177.756ZM451.304 177.756C455.385 176.063 460.066 178 461.758 182.081C472.226 207.325 478 234.998 478 264C478 293.002 472.226 320.675 461.758 345.919C460.066 350 455.385 351.937 451.304 350.244C447.223 348.552 445.286 343.871 446.979 339.79C456.655 316.455 462 290.862 462 264C462 237.138 456.655 211.545 446.979 188.21C445.286 184.129 447.223 179.448 451.304 177.756ZM177.756 451.304C179.448 447.223 184.129 445.286 188.21 446.979C211.545 456.655 237.138 462 264 462C290.862 462 316.455 456.655 339.79 446.979C343.871 445.286 348.552 447.223 350.244 451.304C351.937 455.385 350 460.066 345.919 461.758C320.675 472.226 293.002 478 264 478C234.998 478 207.325 472.226 182.081 461.758C178 460.066 176.063 455.385 177.756 451.304Z" fill="white"/>
<path id="lil_bright" opacity="0.75" fill-rule="evenodd" clip-rule="evenodd" d="M201.221 112.448C220.569 104.424 241.778 100 264 100C286.222 100 307.431 104.424 326.779 112.448C330.861 114.14 332.797 118.821 331.105 122.902C329.412 126.983 324.732 128.92 320.65 127.227C303.211 119.995 284.082 116 264 116C243.918 116 224.789 119.995 207.35 127.227C203.268 128.92 198.588 126.983 196.895 122.902C195.203 118.821 197.139 114.14 201.221 112.448ZM122.902 196.895C126.983 198.588 128.92 203.268 127.227 207.35C119.995 224.789 116 243.918 116 264C116 284.082 119.995 303.211 127.227 320.65C128.92 324.732 126.983 329.412 122.902 331.105C118.821 332.797 114.14 330.861 112.448 326.779C104.424 307.431 100 286.222 100 264C100 241.778 104.424 220.569 112.448 201.221C114.14 197.139 118.821 195.203 122.902 196.895ZM405.098 196.895C409.179 195.203 413.86 197.139 415.552 201.221C423.576 220.569 428 241.778 428 264C428 286.222 423.576 307.431 415.552 326.779C413.86 330.861 409.179 332.797 405.098 331.105C401.017 329.412 399.08 324.732 400.773 320.65C408.005 303.211 412 284.082 412 264C412 243.918 408.005 224.789 400.773 207.35C399.08 203.268 401.017 198.588 405.098 196.895ZM196.895 405.098C198.588 401.017 203.268 399.08 207.35 400.773C224.789 408.005 243.918 412 264 412C284.082 412 303.211 408.005 320.65 400.773C324.732 399.08 329.412 401.017 331.105 405.098C332.797 409.179 330.861 413.86 326.779 415.552C307.431 423.576 286.222 428 264 428C241.778 428 220.569 423.576 201.221 415.552C197.139 413.86 195.203 409.179 196.895 405.098Z" fill="white"/>
<path id="bright_mid" fill-rule="evenodd" clip-rule="evenodd" d="M220.36 158.654C233.813 153.075 248.557 150 264 150C279.443 150 294.187 153.075 307.64 158.654C311.721 160.346 313.658 165.026 311.965 169.108C310.273 173.189 305.592 175.126 301.511 173.433C289.967 168.646 277.303 166 264 166C250.697 166 238.033 168.646 226.489 173.433C222.408 175.126 217.727 173.189 216.035 169.108C214.342 165.026 216.279 160.346 220.36 158.654ZM169.108 216.035C173.189 217.727 175.126 222.408 173.433 226.489C168.646 238.033 166 250.697 166 264C166 277.303 168.646 289.967 173.433 301.511C175.126 305.592 173.189 310.273 169.108 311.965C165.026 313.658 160.346 311.721 158.654 307.64C153.075 294.187 150 279.443 150 264C150 248.557 153.075 233.813 158.654 220.36C160.346 216.279 165.026 214.342 169.108 216.035ZM358.892 216.035C362.974 214.342 367.654 216.279 369.346 220.36C374.925 233.813 378 248.557 378 264C378 279.443 374.925 294.187 369.346 307.64C367.654 311.721 362.974 313.658 358.892 311.965C354.811 310.273 352.874 305.592 354.567 301.511C359.354 289.967 362 277.303 362 264C362 250.697 359.354 238.033 354.567 226.489C352.874 222.408 354.811 217.727 358.892 216.035ZM216.035 358.892C217.727 354.811 222.408 352.874 226.489 354.567C238.033 359.354 250.697 362 264 362C277.303 362 289.967 359.354 301.511 354.567C305.592 352.874 310.273 354.811 311.965 358.892C313.658 362.974 311.721 367.654 307.64 369.346C294.187 374.925 279.443 378 264 378C248.557 378 233.813 374.925 220.36 369.346C216.279 367.654 214.342 362.974 216.035 358.892Z" fill="white"/>
<path id="githoob" fill-rule="evenodd" clip-rule="evenodd" d="M264 208C233.06 208 208 233.694 208 265.416C208 290.823 224.03 312.283 246.29 319.89C249.09 320.393 250.14 318.67 250.14 317.163C250.14 315.799 250.07 311.278 250.07 306.469C236 309.125 232.36 302.952 231.24 299.723C230.61 298.072 227.88 292.976 225.5 291.613C223.54 290.536 220.74 287.881 225.43 287.809C229.84 287.737 232.99 291.972 234.04 293.694C239.08 302.378 247.13 299.938 250.35 298.431C250.84 294.699 252.31 292.187 253.92 290.751C241.46 289.316 228.44 284.364 228.44 262.402C228.44 256.158 230.61 250.991 234.18 246.971C233.62 245.536 231.66 239.651 234.74 231.756C234.74 231.756 239.43 230.249 250.14 237.641C254.62 236.349 259.38 235.703 264.14 235.703C268.9 235.703 273.66 236.349 278.14 237.641C288.85 230.177 293.54 231.756 293.54 231.756C296.62 239.651 294.66 245.536 294.1 246.971C297.67 250.991 299.84 256.086 299.84 262.402C299.84 284.436 286.75 289.316 274.29 290.751C276.32 292.546 278.07 295.991 278.07 301.374C278.07 309.053 278 315.225 278 317.163C278 318.67 279.05 320.464 281.85 319.89C292.967 316.042 302.627 308.717 309.471 298.945C316.315 289.173 319.997 277.447 320 265.416C320 233.694 294.94 208 264 208Z" fill="white"/>
</g>
</svg>
